<svg id="N_LOGO_BLACK" data-name="N LOGO BLACK" xmlns="http://www.w3.org/2000/svg" viewBox="0 0 233.9 228.33">
    <polygon class="cls-1" points="0 160.49 0 228.33 76.11 228.33 76.11 160.49 0 84.38 0 160.49"></polygon>
    <polygon class="cls-1" points="0 0 0 76.11 76.11 152.22 152.22 228.33 152.22 152.22 152.22 76.11 152.22 76.11 76.11 0 0 0"></polygon>
    <path class="cls-1" d="m233.9.05h-76.11v228.33s76.11,0,76.11,0V.05Zm-56.19,46.46c0-9.63,6.58-17.66,18.08-17.66s18.18,8.03,18.18,17.66v4.35h-2.75v-4.35c0-8.29-5.65-14.71-15.44-14.71s-15.33,6.42-15.33,14.71v4.35h-2.75v-4.35Zm0,7.67h36.26v2.95h-36.26v-2.95Zm36.26,13.21v15.7h-2.8v-15.7h2.8Zm-17.09,1.76v13.93h-2.64v-13.93h2.64Zm-19.17-1.76h2.8v15.7h-2.8v-15.7Zm0,19.01h36.26v2.95h-36.26v-2.95Zm0,12.01l18.03,15.85,18.23-16.37v3.68l-18.18,16.11-18.08-15.64v-3.63Zm0,21.6h36.26v2.95h-36.26v-2.95Zm-.67,27.61l36.93-16.06v3.26l-33.52,14.4-3.42-1.5v-.1Zm7.56,3.47l3.42-1.5,15.39,6.47v-13.05l2.69-1.14v15.38l7.87,3.32v3.26l-29.37-12.74Zm20.56,21.03l-3.21,2.9h-24.24v-2.9h27.45Zm8.81,27.51h-27.45l3.21-2.85h24.24v2.85Zm.67-27.4l-33.51,27.4h-4.09v-.1l33.51-27.4h4.09v.1Z"></path>
</svg>